<?xml version="1.0" standalone="no"?><!DOCTYPE svg PUBLIC "-//W3C//DTD SVG 1.1//EN" "http://www.w3.org/Graphics/SVG/1.1/DTD/svg11.dtd"><svg t="1757333127240" class="icon" viewBox="0 0 1024 1024" version="1.1" xmlns="http://www.w3.org/2000/svg" p-id="30942" xmlns:xlink="http://www.w3.org/1999/xlink" width="200" height="200"><path d="M893.994667 400.554667a218.581333 218.581333 0 0 1-246.314667-5.418667v2.346667a293.504 293.504 0 0 1-317.312-344.32 290.517333 290.517333 0 0 1 316.032 246.613333 219.605333 219.605333 0 0 1 294.4 58.624 218.794667 218.794667 0 0 1-46.805333 42.154667z m-52.778667 100.266666A384 384 0 1 1 270.165333 259.029333a783.232 783.232 0 0 0 295.552 194.56 664.917333 664.917333 0 0 0 275.285334 47.232z" fill="#FE7D1F" p-id="30943"></path></svg>